solid OpenSCAD_Model
  facet normal 0.994522 0.104526 0
    outer loop
      vertex 100 0 35
      vertex 97.8148 20.7912 0
      vertex 97.8148 20.7912 35
    endloop
  endfacet
  facet normal 0.994522 0.104526 0
    outer loop
      vertex 97.8148 20.7912 0
      vertex 100 0 35
      vertex 100 0 0
    endloop
  endfacet
  facet normal 0.951055 0.309021 0
    outer loop
      vertex 97.8148 20.7912 35
      vertex 91.3545 40.6737 0
      vertex 91.3545 40.6737 35
    endloop
  endfacet
  facet normal 0.951055 0.309021 0
    outer loop
      vertex 91.3545 40.6737 0
      vertex 97.8148 20.7912 35
      vertex 97.8148 20.7912 0
    endloop
  endfacet
  facet normal 0.866026 0.5 0
    outer loop
      vertex 91.3545 40.6737 35
      vertex 80.9017 58.7785 0
      vertex 80.9017 58.7785 35
    endloop
  endfacet
  facet normal 0.866026 0.5 0
    outer loop
      vertex 80.9017 58.7785 0
      vertex 91.3545 40.6737 35
      vertex 91.3545 40.6737 0
    endloop
  endfacet
  facet normal 0.743147 0.669129 0
    outer loop
      vertex 80.9017 58.7785 35
      vertex 66.9131 74.3145 0
      vertex 66.9131 74.3145 35
    endloop
  endfacet
  facet normal 0.743147 0.669129 0
    outer loop
      vertex 66.9131 74.3145 0
      vertex 80.9017 58.7785 35
      vertex 80.9017 58.7785 0
    endloop
  endfacet
  facet normal 0.587783 0.809019 -0
    outer loop
      vertex 66.9131 74.3145 0
      vertex 50 86.6025 35
      vertex 66.9131 74.3145 35
    endloop
  endfacet
  facet normal 0.587783 0.809019 0
    outer loop
      vertex 50 86.6025 35
      vertex 66.9131 74.3145 0
      vertex 50 86.6025 0
    endloop
  endfacet
  facet normal 0.40674 0.913544 -0
    outer loop
      vertex 50 86.6025 0
      vertex 30.9017 95.1057 35
      vertex 50 86.6025 35
    endloop
  endfacet
  facet normal 0.40674 0.913544 0
    outer loop
      vertex 30.9017 95.1057 35
      vertex 50 86.6025 0
      vertex 30.9017 95.1057 0
    endloop
  endfacet
  facet normal 0.207909 0.978148 -0
    outer loop
      vertex 30.9017 95.1057 0
      vertex 10.4528 99.4522 35
      vertex 30.9017 95.1057 35
    endloop
  endfacet
  facet normal 0.207909 0.978148 0
    outer loop
      vertex 10.4528 99.4522 35
      vertex 30.9017 95.1057 0
      vertex 10.4528 99.4522 0
    endloop
  endfacet
  facet normal 0 1 -0
    outer loop
      vertex 10.4528 99.4522 0
      vertex -10.4528 99.4522 35
      vertex 10.4528 99.4522 35
    endloop
  endfacet
  facet normal 0 1 0
    outer loop
      vertex -10.4528 99.4522 35
      vertex 10.4528 99.4522 0
      vertex -10.4528 99.4522 0
    endloop
  endfacet
  facet normal -0.207909 0.978148 0
    outer loop
      vertex -10.4528 99.4522 0
      vertex -30.9017 95.1057 35
      vertex -10.4528 99.4522 35
    endloop
  endfacet
  facet normal -0.207909 0.978148 0
    outer loop
      vertex -30.9017 95.1057 35
      vertex -10.4528 99.4522 0
      vertex -30.9017 95.1057 0
    endloop
  endfacet
  facet normal -0.40674 0.913544 0
    outer loop
      vertex -30.9017 95.1057 0
      vertex -50 86.6025 35
      vertex -30.9017 95.1057 35
    endloop
  endfacet
  facet normal -0.40674 0.913544 0
    outer loop
      vertex -50 86.6025 35
      vertex -30.9017 95.1057 0
      vertex -50 86.6025 0
    endloop
  endfacet
  facet normal -0.587783 0.809019 0
    outer loop
      vertex -50 86.6025 0
      vertex -66.9131 74.3145 35
      vertex -50 86.6025 35
    endloop
  endfacet
  facet normal -0.587783 0.809019 0
    outer loop
      vertex -66.9131 74.3145 35
      vertex -50 86.6025 0
      vertex -66.9131 74.3145 0
    endloop
  endfacet
  facet normal -0.743147 0.669129 0
    outer loop
      vertex -80.9017 58.7785 0
      vertex -66.9131 74.3145 35
      vertex -66.9131 74.3145 0
    endloop
  endfacet
  facet normal -0.743147 0.669129 0
    outer loop
      vertex -66.9131 74.3145 35
      vertex -80.9017 58.7785 0
      vertex -80.9017 58.7785 35
    endloop
  endfacet
  facet normal -0.866026 0.5 0
    outer loop
      vertex -91.3545 40.6737 0
      vertex -80.9017 58.7785 35
      vertex -80.9017 58.7785 0
    endloop
  endfacet
  facet normal -0.866026 0.5 0
    outer loop
      vertex -80.9017 58.7785 35
      vertex -91.3545 40.6737 0
      vertex -91.3545 40.6737 35
    endloop
  endfacet
  facet normal -0.951055 0.309021 0
    outer loop
      vertex -97.8148 20.7912 0
      vertex -91.3545 40.6737 35
      vertex -91.3545 40.6737 0
    endloop
  endfacet
  facet normal -0.951055 0.309021 0
    outer loop
      vertex -91.3545 40.6737 35
      vertex -97.8148 20.7912 0
      vertex -97.8148 20.7912 35
    endloop
  endfacet
  facet normal -0.994522 0.104526 0
    outer loop
      vertex -100 0 0
      vertex -97.8148 20.7912 35
      vertex -97.8148 20.7912 0
    endloop
  endfacet
  facet normal -0.994522 0.104526 0
    outer loop
      vertex -97.8148 20.7912 35
      vertex -100 0 0
      vertex -100 0 35
    endloop
  endfacet
  facet normal -0.994522 -0.104526 0
    outer loop
      vertex -97.8148 -20.7912 0
      vertex -100 0 35
      vertex -100 0 0
    endloop
  endfacet
  facet normal -0.994522 -0.104526 0
    outer loop
      vertex -100 0 35
      vertex -97.8148 -20.7912 0
      vertex -97.8148 -20.7912 35
    endloop
  endfacet
  facet normal -0.951055 -0.309021 0
    outer loop
      vertex -91.3545 -40.6737 0
      vertex -97.8148 -20.7912 35
      vertex -97.8148 -20.7912 0
    endloop
  endfacet
  facet normal -0.951055 -0.309021 0
    outer loop
      vertex -97.8148 -20.7912 35
      vertex -91.3545 -40.6737 0
      vertex -91.3545 -40.6737 35
    endloop
  endfacet
  facet normal -0.866026 -0.5 0
    outer loop
      vertex -80.9017 -58.7785 0
      vertex -91.3545 -40.6737 35
      vertex -91.3545 -40.6737 0
    endloop
  endfacet
  facet normal -0.866026 -0.5 0
    outer loop
      vertex -91.3545 -40.6737 35
      vertex -80.9017 -58.7785 0
      vertex -80.9017 -58.7785 35
    endloop
  endfacet
  facet normal -0.743147 -0.669129 0
    outer loop
      vertex -66.9131 -74.3145 0
      vertex -80.9017 -58.7785 35
      vertex -80.9017 -58.7785 0
    endloop
  endfacet
  facet normal -0.743147 -0.669129 0
    outer loop
      vertex -80.9017 -58.7785 35
      vertex -66.9131 -74.3145 0
      vertex -66.9131 -74.3145 35
    endloop
  endfacet
  facet normal -0.587783 -0.809019 0
    outer loop
      vertex -66.9131 -74.3145 0
      vertex -50 -86.6025 35
      vertex -66.9131 -74.3145 35
    endloop
  endfacet
  facet normal -0.587783 -0.809019 -0
    outer loop
      vertex -50 -86.6025 35
      vertex -66.9131 -74.3145 0
      vertex -50 -86.6025 0
    endloop
  endfacet
  facet normal -0.40674 -0.913544 0
    outer loop
      vertex -50 -86.6025 0
      vertex -30.9017 -95.1057 35
      vertex -50 -86.6025 35
    endloop
  endfacet
  facet normal -0.40674 -0.913544 -0
    outer loop
      vertex -30.9017 -95.1057 35
      vertex -50 -86.6025 0
      vertex -30.9017 -95.1057 0
    endloop
  endfacet
  facet normal -0.207909 -0.978148 0
    outer loop
      vertex -30.9017 -95.1057 0
      vertex -10.4528 -99.4522 35
      vertex -30.9017 -95.1057 35
    endloop
  endfacet
  facet normal -0.207909 -0.978148 -0
    outer loop
      vertex -10.4528 -99.4522 35
      vertex -30.9017 -95.1057 0
      vertex -10.4528 -99.4522 0
    endloop
  endfacet
  facet normal 0 -1 0
    outer loop
      vertex -10.4528 -99.4522 0
      vertex 10.4528 -99.4522 35
      vertex -10.4528 -99.4522 35
    endloop
  endfacet
  facet normal 0 -1 -0
    outer loop
      vertex 10.4528 -99.4522 35
      vertex -10.4528 -99.4522 0
      vertex 10.4528 -99.4522 0
    endloop
  endfacet
  facet normal 0.207909 -0.978148 0
    outer loop
      vertex 10.4528 -99.4522 0
      vertex 30.9017 -95.1057 35
      vertex 10.4528 -99.4522 35
    endloop
  endfacet
  facet normal 0.207909 -0.978148 0
    outer loop
      vertex 30.9017 -95.1057 35
      vertex 10.4528 -99.4522 0
      vertex 30.9017 -95.1057 0
    endloop
  endfacet
  facet normal 0.40674 -0.913544 0
    outer loop
      vertex 30.9017 -95.1057 0
      vertex 50 -86.6025 35
      vertex 30.9017 -95.1057 35
    endloop
  endfacet
  facet normal 0.40674 -0.913544 0
    outer loop
      vertex 50 -86.6025 35
      vertex 30.9017 -95.1057 0
      vertex 50 -86.6025 0
    endloop
  endfacet
  facet normal 0.587783 -0.809019 0
    outer loop
      vertex 50 -86.6025 0
      vertex 66.9131 -74.3145 35
      vertex 50 -86.6025 35
    endloop
  endfacet
  facet normal 0.587783 -0.809019 0
    outer loop
      vertex 66.9131 -74.3145 35
      vertex 50 -86.6025 0
      vertex 66.9131 -74.3145 0
    endloop
  endfacet
  facet normal 0.743147 -0.669129 0
    outer loop
      vertex 66.9131 -74.3145 35
      vertex 80.9017 -58.7785 0
      vertex 80.9017 -58.7785 35
    endloop
  endfacet
  facet normal 0.743147 -0.669129 0
    outer loop
      vertex 80.9017 -58.7785 0
      vertex 66.9131 -74.3145 35
      vertex 66.9131 -74.3145 0
    endloop
  endfacet
  facet normal 0.866026 -0.5 0
    outer loop
      vertex 80.9017 -58.7785 35
      vertex 91.3545 -40.6737 0
      vertex 91.3545 -40.6737 35
    endloop
  endfacet
  facet normal 0.866026 -0.5 0
    outer loop
      vertex 91.3545 -40.6737 0
      vertex 80.9017 -58.7785 35
      vertex 80.9017 -58.7785 0
    endloop
  endfacet
  facet normal 0.951055 -0.309021 0
    outer loop
      vertex 91.3545 -40.6737 35
      vertex 97.8148 -20.7912 0
      vertex 97.8148 -20.7912 35
    endloop
  endfacet
  facet normal 0.951055 -0.309021 0
    outer loop
      vertex 97.8148 -20.7912 0
      vertex 91.3545 -40.6737 35
      vertex 91.3545 -40.6737 0
    endloop
  endfacet
  facet normal 0.994522 -0.104526 0
    outer loop
      vertex 97.8148 -20.7912 35
      vertex 100 0 0
      vertex 100 0 35
    endloop
  endfacet
  facet normal 0.994522 -0.104526 0
    outer loop
      vertex 100 0 0
      vertex 97.8148 -20.7912 35
      vertex 97.8148 -20.7912 0
    endloop
  endfacet
  facet normal 0 0 -1
    outer loop
      vertex 97.8148 -20.7912 0
      vertex 97.8148 20.7912 0
      vertex 100 0 0
    endloop
  endfacet
  facet normal 0 0 -1
    outer loop
      vertex 91.3545 -40.6737 0
      vertex 97.8148 20.7912 0
      vertex 97.8148 -20.7912 0
    endloop
  endfacet
  facet normal 0 0 -1
    outer loop
      vertex 91.3545 -40.6737 0
      vertex 91.3545 40.6737 0
      vertex 97.8148 20.7912 0
    endloop
  endfacet
  facet normal 0 0 -1
    outer loop
      vertex 80.9017 -58.7785 0
      vertex 91.3545 40.6737 0
      vertex 91.3545 -40.6737 0
    endloop
  endfacet
  facet normal 0 0 -1
    outer loop
      vertex 80.9017 -58.7785 0
      vertex 80.9017 58.7785 0
      vertex 91.3545 40.6737 0
    endloop
  endfacet
  facet normal 0 0 -1
    outer loop
      vertex 66.9131 -74.3145 0
      vertex 80.9017 58.7785 0
      vertex 80.9017 -58.7785 0
    endloop
  endfacet
  facet normal 0 0 -1
    outer loop
      vertex 66.9131 -74.3145 0
      vertex 66.9131 74.3145 0
      vertex 80.9017 58.7785 0
    endloop
  endfacet
  facet normal 0 0 -1
    outer loop
      vertex 50 -86.6025 0
      vertex 66.9131 74.3145 0
      vertex 66.9131 -74.3145 0
    endloop
  endfacet
  facet normal 0 0 -1
    outer loop
      vertex 50 -86.6025 0
      vertex 50 86.6025 0
      vertex 66.9131 74.3145 0
    endloop
  endfacet
  facet normal 0 0 -1
    outer loop
      vertex 30.9017 -95.1057 0
      vertex 50 86.6025 0
      vertex 50 -86.6025 0
    endloop
  endfacet
  facet normal 0 0 -1
    outer loop
      vertex 30.9017 -95.1057 0
      vertex 30.9017 95.1057 0
      vertex 50 86.6025 0
    endloop
  endfacet
  facet normal 0 0 -1
    outer loop
      vertex 10.4528 -99.4522 0
      vertex 30.9017 95.1057 0
      vertex 30.9017 -95.1057 0
    endloop
  endfacet
  facet normal 0 0 -1
    outer loop
      vertex 10.4528 -99.4522 0
      vertex 10.4528 99.4522 0
      vertex 30.9017 95.1057 0
    endloop
  endfacet
  facet normal 0 0 -1
    outer loop
      vertex -10.4528 -99.4522 0
      vertex 10.4528 99.4522 0
      vertex 10.4528 -99.4522 0
    endloop
  endfacet
  facet normal 0 0 -1
    outer loop
      vertex -10.4528 -99.4522 0
      vertex -10.4528 99.4522 0
      vertex 10.4528 99.4522 0
    endloop
  endfacet
  facet normal 0 0 -1
    outer loop
      vertex -30.9017 -95.1057 0
      vertex -10.4528 99.4522 0
      vertex -10.4528 -99.4522 0
    endloop
  endfacet
  facet normal 0 0 -1
    outer loop
      vertex -30.9017 -95.1057 0
      vertex -30.9017 95.1057 0
      vertex -10.4528 99.4522 0
    endloop
  endfacet
  facet normal 0 0 -1
    outer loop
      vertex -50 -86.6025 0
      vertex -30.9017 95.1057 0
      vertex -30.9017 -95.1057 0
    endloop
  endfacet
  facet normal 0 0 -1
    outer loop
      vertex -50 -86.6025 0
      vertex -50 86.6025 0
      vertex -30.9017 95.1057 0
    endloop
  endfacet
  facet normal 0 0 -1
    outer loop
      vertex -66.9131 -74.3145 0
      vertex -50 86.6025 0
      vertex -50 -86.6025 0
    endloop
  endfacet
  facet normal 0 0 -1
    outer loop
      vertex -66.9131 -74.3145 0
      vertex -66.9131 74.3145 0
      vertex -50 86.6025 0
    endloop
  endfacet
  facet normal 0 0 -1
    outer loop
      vertex -80.9017 -58.7785 0
      vertex -66.9131 74.3145 0
      vertex -66.9131 -74.3145 0
    endloop
  endfacet
  facet normal 0 0 -1
    outer loop
      vertex -80.9017 -58.7785 0
      vertex -80.9017 58.7785 0
      vertex -66.9131 74.3145 0
    endloop
  endfacet
  facet normal 0 0 -1
    outer loop
      vertex -91.3545 -40.6737 0
      vertex -80.9017 58.7785 0
      vertex -80.9017 -58.7785 0
    endloop
  endfacet
  facet normal 0 0 -1
    outer loop
      vertex -91.3545 -40.6737 0
      vertex -91.3545 40.6737 0
      vertex -80.9017 58.7785 0
    endloop
  endfacet
  facet normal 0 0 -1
    outer loop
      vertex -97.8148 -20.7912 0
      vertex -91.3545 40.6737 0
      vertex -91.3545 -40.6737 0
    endloop
  endfacet
  facet normal 0 0 -1
    outer loop
      vertex -97.8148 -20.7912 0
      vertex -97.8148 20.7912 0
      vertex -91.3545 40.6737 0
    endloop
  endfacet
  facet normal 0 -0 -1
    outer loop
      vertex -97.8148 20.7912 0
      vertex -97.8148 -20.7912 0
      vertex -100 0 0
    endloop
  endfacet
  facet normal 0 0 1
    outer loop
      vertex 97.8148 20.7912 35
      vertex 97.8148 -20.7912 35
      vertex 100 0 35
    endloop
  endfacet
  facet normal 0 0 1
    outer loop
      vertex 91.3545 40.6737 35
      vertex 97.8148 -20.7912 35
      vertex 97.8148 20.7912 35
    endloop
  endfacet
  facet normal 0 0 1
    outer loop
      vertex 91.3545 40.6737 35
      vertex 91.3545 -40.6737 35
      vertex 97.8148 -20.7912 35
    endloop
  endfacet
  facet normal 0 0 1
    outer loop
      vertex 80.9017 58.7785 35
      vertex 91.3545 -40.6737 35
      vertex 91.3545 40.6737 35
    endloop
  endfacet
  facet normal 0 0 1
    outer loop
      vertex 80.9017 58.7785 35
      vertex 80.9017 -58.7785 35
      vertex 91.3545 -40.6737 35
    endloop
  endfacet
  facet normal 0 0 1
    outer loop
      vertex 66.9131 74.3145 35
      vertex 80.9017 -58.7785 35
      vertex 80.9017 58.7785 35
    endloop
  endfacet
  facet normal 0 0 1
    outer loop
      vertex 66.9131 74.3145 35
      vertex 66.9131 -74.3145 35
      vertex 80.9017 -58.7785 35
    endloop
  endfacet
  facet normal 0 0 1
    outer loop
      vertex 50 86.6025 35
      vertex 66.9131 -74.3145 35
      vertex 66.9131 74.3145 35
    endloop
  endfacet
  facet normal 0 0 1
    outer loop
      vertex 50 86.6025 35
      vertex 50 -86.6025 35
      vertex 66.9131 -74.3145 35
    endloop
  endfacet
  facet normal 0 0 1
    outer loop
      vertex 30.9017 95.1057 35
      vertex 50 -86.6025 35
      vertex 50 86.6025 35
    endloop
  endfacet
  facet normal 0 0 1
    outer loop
      vertex 30.9017 95.1057 35
      vertex 30.9017 -95.1057 35
      vertex 50 -86.6025 35
    endloop
  endfacet
  facet normal 0 0 1
    outer loop
      vertex 10.4528 99.4522 35
      vertex 30.9017 -95.1057 35
      vertex 30.9017 95.1057 35
    endloop
  endfacet
  facet normal 0 0 1
    outer loop
      vertex 10.4528 99.4522 35
      vertex 10.4528 -99.4522 35
      vertex 30.9017 -95.1057 35
    endloop
  endfacet
  facet normal -0 0 1
    outer loop
      vertex -10.4528 99.4522 35
      vertex 10.4528 -99.4522 35
      vertex 10.4528 99.4522 35
    endloop
  endfacet
  facet normal 0 0 1
    outer loop
      vertex -10.4528 99.4522 35
      vertex -10.4528 -99.4522 35
      vertex 10.4528 -99.4522 35
    endloop
  endfacet
  facet normal -0 0 1
    outer loop
      vertex -30.9017 95.1057 35
      vertex -10.4528 -99.4522 35
      vertex -10.4528 99.4522 35
    endloop
  endfacet
  facet normal 0 0 1
    outer loop
      vertex -30.9017 95.1057 35
      vertex -30.9017 -95.1057 35
      vertex -10.4528 -99.4522 35
    endloop
  endfacet
  facet normal -0 0 1
    outer loop
      vertex -50 86.6025 35
      vertex -30.9017 -95.1057 35
      vertex -30.9017 95.1057 35
    endloop
  endfacet
  facet normal 0 0 1
    outer loop
      vertex -50 86.6025 35
      vertex -50 -86.6025 35
      vertex -30.9017 -95.1057 35
    endloop
  endfacet
  facet normal -0 0 1
    outer loop
      vertex -66.9131 74.3145 35
      vertex -50 -86.6025 35
      vertex -50 86.6025 35
    endloop
  endfacet
  facet normal 0 0 1
    outer loop
      vertex -66.9131 74.3145 35
      vertex -66.9131 -74.3145 35
      vertex -50 -86.6025 35
    endloop
  endfacet
  facet normal -0 0 1
    outer loop
      vertex -80.9017 58.7785 35
      vertex -66.9131 -74.3145 35
      vertex -66.9131 74.3145 35
    endloop
  endfacet
  facet normal 0 0 1
    outer loop
      vertex -80.9017 58.7785 35
      vertex -80.9017 -58.7785 35
      vertex -66.9131 -74.3145 35
    endloop
  endfacet
  facet normal -0 0 1
    outer loop
      vertex -91.3545 40.6737 35
      vertex -80.9017 -58.7785 35
      vertex -80.9017 58.7785 35
    endloop
  endfacet
  facet normal 0 0 1
    outer loop
      vertex -91.3545 40.6737 35
      vertex -91.3545 -40.6737 35
      vertex -80.9017 -58.7785 35
    endloop
  endfacet
  facet normal -0 0 1
    outer loop
      vertex -97.8148 20.7912 35
      vertex -91.3545 -40.6737 35
      vertex -91.3545 40.6737 35
    endloop
  endfacet
  facet normal 0 0 1
    outer loop
      vertex -97.8148 20.7912 35
      vertex -97.8148 -20.7912 35
      vertex -91.3545 -40.6737 35
    endloop
  endfacet
  facet normal 0 -0 1
    outer loop
      vertex -97.8148 -20.7912 35
      vertex -97.8148 20.7912 35
      vertex -100 0 35
    endloop
  endfacet
endsolid OpenSCAD_Model
