solid OpenSCAD_Model
  facet normal 0.994523 0.104522 0
    outer loop
      vertex 50.0001 163.89 1475
      vertex 48.9075 174.286 1375
      vertex 48.9075 174.286 1475
    endloop
  endfacet
  facet normal 0.994523 0.104522 0
    outer loop
      vertex 48.9075 174.286 1375
      vertex 50.0001 163.89 1475
      vertex 50.0001 163.89 1375
    endloop
  endfacet
  facet normal 0.951054 0.309023 0
    outer loop
      vertex 48.9075 174.286 1475
      vertex 45.6774 184.227 1375
      vertex 45.6774 184.227 1475
    endloop
  endfacet
  facet normal 0.951054 0.309023 0
    outer loop
      vertex 45.6774 184.227 1375
      vertex 48.9075 174.286 1475
      vertex 48.9075 174.286 1375
    endloop
  endfacet
  facet normal 0.866016 0.500016 0
    outer loop
      vertex 45.6774 184.227 1475
      vertex 40.451 193.279 1375
      vertex 40.451 193.279 1475
    endloop
  endfacet
  facet normal 0.866016 0.500016 0
    outer loop
      vertex 40.451 193.279 1375
      vertex 45.6774 184.227 1475
      vertex 45.6774 184.227 1375
    endloop
  endfacet
  facet normal 0.743142 0.669134 0
    outer loop
      vertex 40.451 193.279 1475
      vertex 33.4566 201.047 1375
      vertex 33.4566 201.047 1475
    endloop
  endfacet
  facet normal 0.743142 0.669134 0
    outer loop
      vertex 33.4566 201.047 1375
      vertex 40.451 193.279 1475
      vertex 40.451 193.279 1375
    endloop
  endfacet
  facet normal 0.587785 0.809017 -0
    outer loop
      vertex 33.4566 201.047 1375
      vertex 25.0001 207.191 1475
      vertex 33.4566 201.047 1475
    endloop
  endfacet
  facet normal 0.587785 0.809017 0
    outer loop
      vertex 25.0001 207.191 1475
      vertex 33.4566 201.047 1375
      vertex 25.0001 207.191 1375
    endloop
  endfacet
  facet normal 0.406774 0.913529 -0
    outer loop
      vertex 25.0001 207.191 1375
      vertex 15.451 211.443 1475
      vertex 25.0001 207.191 1475
    endloop
  endfacet
  facet normal 0.406774 0.913529 0
    outer loop
      vertex 15.451 211.443 1475
      vertex 25.0001 207.191 1375
      vertex 15.451 211.443 1375
    endloop
  endfacet
  facet normal 0.207886 0.978153 -0
    outer loop
      vertex 15.451 211.443 1375
      vertex 5.22654 213.616 1475
      vertex 15.451 211.443 1475
    endloop
  endfacet
  facet normal 0.207886 0.978153 0
    outer loop
      vertex 5.22654 213.616 1475
      vertex 15.451 211.443 1375
      vertex 5.22654 213.616 1375
    endloop
  endfacet
  facet normal 0 1 -0
    outer loop
      vertex 5.22654 213.616 1375
      vertex -5.22631 213.616 1475
      vertex 5.22654 213.616 1475
    endloop
  endfacet
  facet normal 0 1 0
    outer loop
      vertex -5.22631 213.616 1475
      vertex 5.22654 213.616 1375
      vertex -5.22631 213.616 1375
    endloop
  endfacet
  facet normal -0.207888 0.978153 0
    outer loop
      vertex -5.22631 213.616 1375
      vertex -15.4507 211.443 1475
      vertex -5.22631 213.616 1475
    endloop
  endfacet
  facet normal -0.207888 0.978153 0
    outer loop
      vertex -15.4507 211.443 1475
      vertex -5.22631 213.616 1375
      vertex -15.4507 211.443 1375
    endloop
  endfacet
  facet normal -0.40677 0.91353 0
    outer loop
      vertex -15.4507 211.443 1375
      vertex -24.9999 207.191 1475
      vertex -15.4507 211.443 1475
    endloop
  endfacet
  facet normal -0.40677 0.91353 0
    outer loop
      vertex -24.9999 207.191 1475
      vertex -15.4507 211.443 1375
      vertex -24.9999 207.191 1375
    endloop
  endfacet
  facet normal -0.587785 0.809017 0
    outer loop
      vertex -24.9999 207.191 1375
      vertex -33.4564 201.047 1475
      vertex -24.9999 207.191 1475
    endloop
  endfacet
  facet normal -0.587785 0.809017 0
    outer loop
      vertex -33.4564 201.047 1475
      vertex -24.9999 207.191 1375
      vertex -33.4564 201.047 1375
    endloop
  endfacet
  facet normal -0.743147 0.669129 0
    outer loop
      vertex -40.4507 193.279 1375
      vertex -33.4564 201.047 1475
      vertex -33.4564 201.047 1375
    endloop
  endfacet
  facet normal -0.743147 0.669129 0
    outer loop
      vertex -33.4564 201.047 1475
      vertex -40.4507 193.279 1375
      vertex -40.4507 193.279 1475
    endloop
  endfacet
  facet normal -0.866012 0.500023 0
    outer loop
      vertex -45.6772 184.227 1375
      vertex -40.4507 193.279 1475
      vertex -40.4507 193.279 1375
    endloop
  endfacet
  facet normal -0.866012 0.500023 0
    outer loop
      vertex -40.4507 193.279 1475
      vertex -45.6772 184.227 1375
      vertex -45.6772 184.227 1475
    endloop
  endfacet
  facet normal -0.951054 0.309023 0
    outer loop
      vertex -48.9073 174.286 1375
      vertex -45.6772 184.227 1475
      vertex -45.6772 184.227 1375
    endloop
  endfacet
  facet normal -0.951054 0.309023 0
    outer loop
      vertex -45.6772 184.227 1475
      vertex -48.9073 174.286 1375
      vertex -48.9073 174.286 1475
    endloop
  endfacet
  facet normal -0.994523 0.104522 0
    outer loop
      vertex -49.9999 163.89 1375
      vertex -48.9073 174.286 1475
      vertex -48.9073 174.286 1375
    endloop
  endfacet
  facet normal -0.994523 0.104522 0
    outer loop
      vertex -48.9073 174.286 1475
      vertex -49.9999 163.89 1375
      vertex -49.9999 163.89 1475
    endloop
  endfacet
  facet normal -0.994523 -0.104522 0
    outer loop
      vertex -48.9073 153.494 1375
      vertex -49.9999 163.89 1475
      vertex -49.9999 163.89 1375
    endloop
  endfacet
  facet normal -0.994523 -0.104522 0
    outer loop
      vertex -49.9999 163.89 1475
      vertex -48.9073 153.494 1375
      vertex -48.9073 153.494 1475
    endloop
  endfacet
  facet normal -0.951054 -0.309023 0
    outer loop
      vertex -45.6772 143.553 1375
      vertex -48.9073 153.494 1475
      vertex -48.9073 153.494 1375
    endloop
  endfacet
  facet normal -0.951054 -0.309023 0
    outer loop
      vertex -48.9073 153.494 1475
      vertex -45.6772 143.553 1375
      vertex -45.6772 143.553 1475
    endloop
  endfacet
  facet normal -0.866012 -0.500023 0
    outer loop
      vertex -40.4507 134.501 1375
      vertex -45.6772 143.553 1475
      vertex -45.6772 143.553 1375
    endloop
  endfacet
  facet normal -0.866012 -0.500023 0
    outer loop
      vertex -45.6772 143.553 1475
      vertex -40.4507 134.501 1375
      vertex -40.4507 134.501 1475
    endloop
  endfacet
  facet normal -0.743147 -0.669129 0
    outer loop
      vertex -33.4564 126.733 1375
      vertex -40.4507 134.501 1475
      vertex -40.4507 134.501 1375
    endloop
  endfacet
  facet normal -0.743147 -0.669129 0
    outer loop
      vertex -40.4507 134.501 1475
      vertex -33.4564 126.733 1375
      vertex -33.4564 126.733 1475
    endloop
  endfacet
  facet normal -0.587785 -0.809017 0
    outer loop
      vertex -33.4564 126.733 1375
      vertex -24.9999 120.589 1475
      vertex -33.4564 126.733 1475
    endloop
  endfacet
  facet normal -0.587785 -0.809017 -0
    outer loop
      vertex -24.9999 120.589 1475
      vertex -33.4564 126.733 1375
      vertex -24.9999 120.589 1375
    endloop
  endfacet
  facet normal -0.40677 -0.91353 0
    outer loop
      vertex -24.9999 120.589 1375
      vertex -15.4507 116.337 1475
      vertex -24.9999 120.589 1475
    endloop
  endfacet
  facet normal -0.40677 -0.91353 -0
    outer loop
      vertex -15.4507 116.337 1475
      vertex -24.9999 120.589 1375
      vertex -15.4507 116.337 1375
    endloop
  endfacet
  facet normal -0.207888 -0.978153 0
    outer loop
      vertex -15.4507 116.337 1375
      vertex -5.22631 114.164 1475
      vertex -15.4507 116.337 1475
    endloop
  endfacet
  facet normal -0.207888 -0.978153 -0
    outer loop
      vertex -5.22631 114.164 1475
      vertex -15.4507 116.337 1375
      vertex -5.22631 114.164 1375
    endloop
  endfacet
  facet normal 0 -1 0
    outer loop
      vertex -5.22631 114.164 1375
      vertex 5.22654 114.164 1475
      vertex -5.22631 114.164 1475
    endloop
  endfacet
  facet normal 0 -1 -0
    outer loop
      vertex 5.22654 114.164 1475
      vertex -5.22631 114.164 1375
      vertex 5.22654 114.164 1375
    endloop
  endfacet
  facet normal 0.207886 -0.978153 0
    outer loop
      vertex 5.22654 114.164 1375
      vertex 15.451 116.337 1475
      vertex 5.22654 114.164 1475
    endloop
  endfacet
  facet normal 0.207886 -0.978153 0
    outer loop
      vertex 15.451 116.337 1475
      vertex 5.22654 114.164 1375
      vertex 15.451 116.337 1375
    endloop
  endfacet
  facet normal 0.406774 -0.913529 0
    outer loop
      vertex 15.451 116.337 1375
      vertex 25.0001 120.589 1475
      vertex 15.451 116.337 1475
    endloop
  endfacet
  facet normal 0.406774 -0.913529 0
    outer loop
      vertex 25.0001 120.589 1475
      vertex 15.451 116.337 1375
      vertex 25.0001 120.589 1375
    endloop
  endfacet
  facet normal 0.587785 -0.809017 0
    outer loop
      vertex 25.0001 120.589 1375
      vertex 33.4566 126.733 1475
      vertex 25.0001 120.589 1475
    endloop
  endfacet
  facet normal 0.587785 -0.809017 0
    outer loop
      vertex 33.4566 126.733 1475
      vertex 25.0001 120.589 1375
      vertex 33.4566 126.733 1375
    endloop
  endfacet
  facet normal 0.743142 -0.669134 0
    outer loop
      vertex 33.4566 126.733 1475
      vertex 40.451 134.501 1375
      vertex 40.451 134.501 1475
    endloop
  endfacet
  facet normal 0.743142 -0.669134 0
    outer loop
      vertex 40.451 134.501 1375
      vertex 33.4566 126.733 1475
      vertex 33.4566 126.733 1375
    endloop
  endfacet
  facet normal 0.866016 -0.500016 0
    outer loop
      vertex 40.451 134.501 1475
      vertex 45.6774 143.553 1375
      vertex 45.6774 143.553 1475
    endloop
  endfacet
  facet normal 0.866016 -0.500016 0
    outer loop
      vertex 45.6774 143.553 1375
      vertex 40.451 134.501 1475
      vertex 40.451 134.501 1375
    endloop
  endfacet
  facet normal 0.951054 -0.309023 0
    outer loop
      vertex 45.6774 143.553 1475
      vertex 48.9075 153.494 1375
      vertex 48.9075 153.494 1475
    endloop
  endfacet
  facet normal 0.951054 -0.309023 0
    outer loop
      vertex 48.9075 153.494 1375
      vertex 45.6774 143.553 1475
      vertex 45.6774 143.553 1375
    endloop
  endfacet
  facet normal 0.994523 -0.104522 0
    outer loop
      vertex 48.9075 153.494 1475
      vertex 50.0001 163.89 1375
      vertex 50.0001 163.89 1475
    endloop
  endfacet
  facet normal 0.994523 -0.104522 0
    outer loop
      vertex 50.0001 163.89 1375
      vertex 48.9075 153.494 1475
      vertex 48.9075 153.494 1375
    endloop
  endfacet
  facet normal 0 0 -1
    outer loop
      vertex 48.9075 153.494 1375
      vertex 48.9075 174.286 1375
      vertex 50.0001 163.89 1375
    endloop
  endfacet
  facet normal 0 0 -1
    outer loop
      vertex 45.6774 143.553 1375
      vertex 48.9075 174.286 1375
      vertex 48.9075 153.494 1375
    endloop
  endfacet
  facet normal 0 0 -1
    outer loop
      vertex 45.6774 143.553 1375
      vertex 45.6774 184.227 1375
      vertex 48.9075 174.286 1375
    endloop
  endfacet
  facet normal 0 0 -1
    outer loop
      vertex 40.451 134.501 1375
      vertex 45.6774 184.227 1375
      vertex 45.6774 143.553 1375
    endloop
  endfacet
  facet normal 0 0 -1
    outer loop
      vertex 40.451 134.501 1375
      vertex 40.451 193.279 1375
      vertex 45.6774 184.227 1375
    endloop
  endfacet
  facet normal 0 0 -1
    outer loop
      vertex 33.4566 126.733 1375
      vertex 40.451 193.279 1375
      vertex 40.451 134.501 1375
    endloop
  endfacet
  facet normal 0 0 -1
    outer loop
      vertex 33.4566 126.733 1375
      vertex 33.4566 201.047 1375
      vertex 40.451 193.279 1375
    endloop
  endfacet
  facet normal 0 0 -1
    outer loop
      vertex 25.0001 120.589 1375
      vertex 33.4566 201.047 1375
      vertex 33.4566 126.733 1375
    endloop
  endfacet
  facet normal 0 0 -1
    outer loop
      vertex 25.0001 120.589 1375
      vertex 25.0001 207.191 1375
      vertex 33.4566 201.047 1375
    endloop
  endfacet
  facet normal 0 0 -1
    outer loop
      vertex 15.451 116.337 1375
      vertex 25.0001 207.191 1375
      vertex 25.0001 120.589 1375
    endloop
  endfacet
  facet normal 0 0 -1
    outer loop
      vertex 15.451 116.337 1375
      vertex 15.451 211.443 1375
      vertex 25.0001 207.191 1375
    endloop
  endfacet
  facet normal 0 0 -1
    outer loop
      vertex 5.22654 114.164 1375
      vertex 15.451 211.443 1375
      vertex 15.451 116.337 1375
    endloop
  endfacet
  facet normal 0 0 -1
    outer loop
      vertex 5.22654 114.164 1375
      vertex 5.22654 213.616 1375
      vertex 15.451 211.443 1375
    endloop
  endfacet
  facet normal 0 0 -1
    outer loop
      vertex -5.22631 114.164 1375
      vertex 5.22654 213.616 1375
      vertex 5.22654 114.164 1375
    endloop
  endfacet
  facet normal 0 0 -1
    outer loop
      vertex -5.22631 114.164 1375
      vertex -5.22631 213.616 1375
      vertex 5.22654 213.616 1375
    endloop
  endfacet
  facet normal 0 0 -1
    outer loop
      vertex -15.4507 116.337 1375
      vertex -5.22631 213.616 1375
      vertex -5.22631 114.164 1375
    endloop
  endfacet
  facet normal 0 0 -1
    outer loop
      vertex -15.4507 116.337 1375
      vertex -15.4507 211.443 1375
      vertex -5.22631 213.616 1375
    endloop
  endfacet
  facet normal 0 0 -1
    outer loop
      vertex -24.9999 120.589 1375
      vertex -15.4507 211.443 1375
      vertex -15.4507 116.337 1375
    endloop
  endfacet
  facet normal 0 0 -1
    outer loop
      vertex -24.9999 120.589 1375
      vertex -24.9999 207.191 1375
      vertex -15.4507 211.443 1375
    endloop
  endfacet
  facet normal 0 0 -1
    outer loop
      vertex -33.4564 126.733 1375
      vertex -24.9999 207.191 1375
      vertex -24.9999 120.589 1375
    endloop
  endfacet
  facet normal 0 0 -1
    outer loop
      vertex -33.4564 126.733 1375
      vertex -33.4564 201.047 1375
      vertex -24.9999 207.191 1375
    endloop
  endfacet
  facet normal 0 0 -1
    outer loop
      vertex -40.4507 134.501 1375
      vertex -33.4564 201.047 1375
      vertex -33.4564 126.733 1375
    endloop
  endfacet
  facet normal 0 0 -1
    outer loop
      vertex -40.4507 134.501 1375
      vertex -40.4507 193.279 1375
      vertex -33.4564 201.047 1375
    endloop
  endfacet
  facet normal 0 0 -1
    outer loop
      vertex -45.6772 143.553 1375
      vertex -40.4507 193.279 1375
      vertex -40.4507 134.501 1375
    endloop
  endfacet
  facet normal 0 0 -1
    outer loop
      vertex -45.6772 143.553 1375
      vertex -45.6772 184.227 1375
      vertex -40.4507 193.279 1375
    endloop
  endfacet
  facet normal 0 0 -1
    outer loop
      vertex -48.9073 153.494 1375
      vertex -45.6772 184.227 1375
      vertex -45.6772 143.553 1375
    endloop
  endfacet
  facet normal 0 0 -1
    outer loop
      vertex -48.9073 153.494 1375
      vertex -48.9073 174.286 1375
      vertex -45.6772 184.227 1375
    endloop
  endfacet
  facet normal 0 -0 -1
    outer loop
      vertex -48.9073 174.286 1375
      vertex -48.9073 153.494 1375
      vertex -49.9999 163.89 1375
    endloop
  endfacet
  facet normal 0 0 1
    outer loop
      vertex 48.9075 174.286 1475
      vertex 48.9075 153.494 1475
      vertex 50.0001 163.89 1475
    endloop
  endfacet
  facet normal 0 0 1
    outer loop
      vertex 45.6774 184.227 1475
      vertex 48.9075 153.494 1475
      vertex 48.9075 174.286 1475
    endloop
  endfacet
  facet normal 0 0 1
    outer loop
      vertex 45.6774 184.227 1475
      vertex 45.6774 143.553 1475
      vertex 48.9075 153.494 1475
    endloop
  endfacet
  facet normal 0 0 1
    outer loop
      vertex 40.451 193.279 1475
      vertex 45.6774 143.553 1475
      vertex 45.6774 184.227 1475
    endloop
  endfacet
  facet normal 0 0 1
    outer loop
      vertex 40.451 193.279 1475
      vertex 40.451 134.501 1475
      vertex 45.6774 143.553 1475
    endloop
  endfacet
  facet normal 0 0 1
    outer loop
      vertex 33.4566 201.047 1475
      vertex 40.451 134.501 1475
      vertex 40.451 193.279 1475
    endloop
  endfacet
  facet normal 0 0 1
    outer loop
      vertex 33.4566 201.047 1475
      vertex 33.4566 126.733 1475
      vertex 40.451 134.501 1475
    endloop
  endfacet
  facet normal 0 0 1
    outer loop
      vertex 25.0001 207.191 1475
      vertex 33.4566 126.733 1475
      vertex 33.4566 201.047 1475
    endloop
  endfacet
  facet normal 0 0 1
    outer loop
      vertex 25.0001 207.191 1475
      vertex 25.0001 120.589 1475
      vertex 33.4566 126.733 1475
    endloop
  endfacet
  facet normal 0 0 1
    outer loop
      vertex 15.451 211.443 1475
      vertex 25.0001 120.589 1475
      vertex 25.0001 207.191 1475
    endloop
  endfacet
  facet normal 0 0 1
    outer loop
      vertex 15.451 211.443 1475
      vertex 15.451 116.337 1475
      vertex 25.0001 120.589 1475
    endloop
  endfacet
  facet normal 0 0 1
    outer loop
      vertex 5.22654 213.616 1475
      vertex 15.451 116.337 1475
      vertex 15.451 211.443 1475
    endloop
  endfacet
  facet normal 0 0 1
    outer loop
      vertex 5.22654 213.616 1475
      vertex 5.22654 114.164 1475
      vertex 15.451 116.337 1475
    endloop
  endfacet
  facet normal -0 0 1
    outer loop
      vertex -5.22631 213.616 1475
      vertex 5.22654 114.164 1475
      vertex 5.22654 213.616 1475
    endloop
  endfacet
  facet normal 0 0 1
    outer loop
      vertex -5.22631 213.616 1475
      vertex -5.22631 114.164 1475
      vertex 5.22654 114.164 1475
    endloop
  endfacet
  facet normal -0 0 1
    outer loop
      vertex -15.4507 211.443 1475
      vertex -5.22631 114.164 1475
      vertex -5.22631 213.616 1475
    endloop
  endfacet
  facet normal 0 0 1
    outer loop
      vertex -15.4507 211.443 1475
      vertex -15.4507 116.337 1475
      vertex -5.22631 114.164 1475
    endloop
  endfacet
  facet normal -0 0 1
    outer loop
      vertex -24.9999 207.191 1475
      vertex -15.4507 116.337 1475
      vertex -15.4507 211.443 1475
    endloop
  endfacet
  facet normal 0 0 1
    outer loop
      vertex -24.9999 207.191 1475
      vertex -24.9999 120.589 1475
      vertex -15.4507 116.337 1475
    endloop
  endfacet
  facet normal -0 0 1
    outer loop
      vertex -33.4564 201.047 1475
      vertex -24.9999 120.589 1475
      vertex -24.9999 207.191 1475
    endloop
  endfacet
  facet normal 0 0 1
    outer loop
      vertex -33.4564 201.047 1475
      vertex -33.4564 126.733 1475
      vertex -24.9999 120.589 1475
    endloop
  endfacet
  facet normal -0 0 1
    outer loop
      vertex -40.4507 193.279 1475
      vertex -33.4564 126.733 1475
      vertex -33.4564 201.047 1475
    endloop
  endfacet
  facet normal 0 0 1
    outer loop
      vertex -40.4507 193.279 1475
      vertex -40.4507 134.501 1475
      vertex -33.4564 126.733 1475
    endloop
  endfacet
  facet normal -0 0 1
    outer loop
      vertex -45.6772 184.227 1475
      vertex -40.4507 134.501 1475
      vertex -40.4507 193.279 1475
    endloop
  endfacet
  facet normal 0 0 1
    outer loop
      vertex -45.6772 184.227 1475
      vertex -45.6772 143.553 1475
      vertex -40.4507 134.501 1475
    endloop
  endfacet
  facet normal -0 0 1
    outer loop
      vertex -48.9073 174.286 1475
      vertex -45.6772 143.553 1475
      vertex -45.6772 184.227 1475
    endloop
  endfacet
  facet normal 0 0 1
    outer loop
      vertex -48.9073 174.286 1475
      vertex -48.9073 153.494 1475
      vertex -45.6772 143.553 1475
    endloop
  endfacet
  facet normal 0 -0 1
    outer loop
      vertex -48.9073 153.494 1475
      vertex -48.9073 174.286 1475
      vertex -49.9999 163.89 1475
    endloop
  endfacet
endsolid OpenSCAD_Model
