solid OpenSCAD_Model
  facet normal 0.994523 0.104522 0
    outer loop
      vertex 49.9999 164.891 1372.3
      vertex 48.9073 175.287 1247.3
      vertex 48.9073 175.287 1372.3
    endloop
  endfacet
  facet normal 0.994523 0.104522 0
    outer loop
      vertex 48.9073 175.287 1247.3
      vertex 49.9999 164.891 1372.3
      vertex 49.9999 164.891 1247.3
    endloop
  endfacet
  facet normal 0.951054 0.309023 0
    outer loop
      vertex 48.9073 175.287 1372.3
      vertex 45.6772 185.228 1247.3
      vertex 45.6772 185.228 1372.3
    endloop
  endfacet
  facet normal 0.951054 0.309023 0
    outer loop
      vertex 45.6772 185.228 1247.3
      vertex 48.9073 175.287 1372.3
      vertex 48.9073 175.287 1247.3
    endloop
  endfacet
  facet normal 0.866012 0.500023 0
    outer loop
      vertex 45.6772 185.228 1372.3
      vertex 40.4507 194.28 1247.3
      vertex 40.4507 194.28 1372.3
    endloop
  endfacet
  facet normal 0.866012 0.500023 0
    outer loop
      vertex 40.4507 194.28 1247.3
      vertex 45.6772 185.228 1372.3
      vertex 45.6772 185.228 1247.3
    endloop
  endfacet
  facet normal 0.743147 0.669129 0
    outer loop
      vertex 40.4507 194.28 1372.3
      vertex 33.4564 202.048 1247.3
      vertex 33.4564 202.048 1372.3
    endloop
  endfacet
  facet normal 0.743147 0.669129 0
    outer loop
      vertex 33.4564 202.048 1247.3
      vertex 40.4507 194.28 1372.3
      vertex 40.4507 194.28 1247.3
    endloop
  endfacet
  facet normal 0.587785 0.809017 -0
    outer loop
      vertex 33.4564 202.048 1247.3
      vertex 24.9999 208.192 1372.3
      vertex 33.4564 202.048 1372.3
    endloop
  endfacet
  facet normal 0.587785 0.809017 0
    outer loop
      vertex 24.9999 208.192 1372.3
      vertex 33.4564 202.048 1247.3
      vertex 24.9999 208.192 1247.3
    endloop
  endfacet
  facet normal 0.40677 0.91353 -0
    outer loop
      vertex 24.9999 208.192 1247.3
      vertex 15.4507 212.444 1372.3
      vertex 24.9999 208.192 1372.3
    endloop
  endfacet
  facet normal 0.40677 0.91353 0
    outer loop
      vertex 15.4507 212.444 1372.3
      vertex 24.9999 208.192 1247.3
      vertex 15.4507 212.444 1247.3
    endloop
  endfacet
  facet normal 0.207888 0.978153 -0
    outer loop
      vertex 15.4507 212.444 1247.3
      vertex 5.22631 214.617 1372.3
      vertex 15.4507 212.444 1372.3
    endloop
  endfacet
  facet normal 0.207888 0.978153 0
    outer loop
      vertex 5.22631 214.617 1372.3
      vertex 15.4507 212.444 1247.3
      vertex 5.22631 214.617 1247.3
    endloop
  endfacet
  facet normal 0 1 -0
    outer loop
      vertex 5.22631 214.617 1247.3
      vertex -5.22654 214.617 1372.3
      vertex 5.22631 214.617 1372.3
    endloop
  endfacet
  facet normal 0 1 0
    outer loop
      vertex -5.22654 214.617 1372.3
      vertex 5.22631 214.617 1247.3
      vertex -5.22654 214.617 1247.3
    endloop
  endfacet
  facet normal -0.207886 0.978153 0
    outer loop
      vertex -5.22654 214.617 1247.3
      vertex -15.451 212.444 1372.3
      vertex -5.22654 214.617 1372.3
    endloop
  endfacet
  facet normal -0.207886 0.978153 0
    outer loop
      vertex -15.451 212.444 1372.3
      vertex -5.22654 214.617 1247.3
      vertex -15.451 212.444 1247.3
    endloop
  endfacet
  facet normal -0.406774 0.913529 0
    outer loop
      vertex -15.451 212.444 1247.3
      vertex -25.0001 208.192 1372.3
      vertex -15.451 212.444 1372.3
    endloop
  endfacet
  facet normal -0.406774 0.913529 0
    outer loop
      vertex -25.0001 208.192 1372.3
      vertex -15.451 212.444 1247.3
      vertex -25.0001 208.192 1247.3
    endloop
  endfacet
  facet normal -0.587785 0.809017 0
    outer loop
      vertex -25.0001 208.192 1247.3
      vertex -33.4566 202.048 1372.3
      vertex -25.0001 208.192 1372.3
    endloop
  endfacet
  facet normal -0.587785 0.809017 0
    outer loop
      vertex -33.4566 202.048 1372.3
      vertex -25.0001 208.192 1247.3
      vertex -33.4566 202.048 1247.3
    endloop
  endfacet
  facet normal -0.743142 0.669134 0
    outer loop
      vertex -40.451 194.28 1247.3
      vertex -33.4566 202.048 1372.3
      vertex -33.4566 202.048 1247.3
    endloop
  endfacet
  facet normal -0.743142 0.669134 0
    outer loop
      vertex -33.4566 202.048 1372.3
      vertex -40.451 194.28 1247.3
      vertex -40.451 194.28 1372.3
    endloop
  endfacet
  facet normal -0.866016 0.500016 0
    outer loop
      vertex -45.6774 185.228 1247.3
      vertex -40.451 194.28 1372.3
      vertex -40.451 194.28 1247.3
    endloop
  endfacet
  facet normal -0.866016 0.500016 0
    outer loop
      vertex -40.451 194.28 1372.3
      vertex -45.6774 185.228 1247.3
      vertex -45.6774 185.228 1372.3
    endloop
  endfacet
  facet normal -0.951054 0.309023 0
    outer loop
      vertex -48.9075 175.287 1247.3
      vertex -45.6774 185.228 1372.3
      vertex -45.6774 185.228 1247.3
    endloop
  endfacet
  facet normal -0.951054 0.309023 0
    outer loop
      vertex -45.6774 185.228 1372.3
      vertex -48.9075 175.287 1247.3
      vertex -48.9075 175.287 1372.3
    endloop
  endfacet
  facet normal -0.994523 0.104522 0
    outer loop
      vertex -50.0001 164.891 1247.3
      vertex -48.9075 175.287 1372.3
      vertex -48.9075 175.287 1247.3
    endloop
  endfacet
  facet normal -0.994523 0.104522 0
    outer loop
      vertex -48.9075 175.287 1372.3
      vertex -50.0001 164.891 1247.3
      vertex -50.0001 164.891 1372.3
    endloop
  endfacet
  facet normal -0.994523 -0.104522 0
    outer loop
      vertex -48.9075 154.495 1247.3
      vertex -50.0001 164.891 1372.3
      vertex -50.0001 164.891 1247.3
    endloop
  endfacet
  facet normal -0.994523 -0.104522 0
    outer loop
      vertex -50.0001 164.891 1372.3
      vertex -48.9075 154.495 1247.3
      vertex -48.9075 154.495 1372.3
    endloop
  endfacet
  facet normal -0.951054 -0.309023 0
    outer loop
      vertex -45.6774 144.554 1247.3
      vertex -48.9075 154.495 1372.3
      vertex -48.9075 154.495 1247.3
    endloop
  endfacet
  facet normal -0.951054 -0.309023 0
    outer loop
      vertex -48.9075 154.495 1372.3
      vertex -45.6774 144.554 1247.3
      vertex -45.6774 144.554 1372.3
    endloop
  endfacet
  facet normal -0.866016 -0.500016 0
    outer loop
      vertex -40.451 135.502 1247.3
      vertex -45.6774 144.554 1372.3
      vertex -45.6774 144.554 1247.3
    endloop
  endfacet
  facet normal -0.866016 -0.500016 0
    outer loop
      vertex -45.6774 144.554 1372.3
      vertex -40.451 135.502 1247.3
      vertex -40.451 135.502 1372.3
    endloop
  endfacet
  facet normal -0.743142 -0.669134 0
    outer loop
      vertex -33.4566 127.734 1247.3
      vertex -40.451 135.502 1372.3
      vertex -40.451 135.502 1247.3
    endloop
  endfacet
  facet normal -0.743142 -0.669134 0
    outer loop
      vertex -40.451 135.502 1372.3
      vertex -33.4566 127.734 1247.3
      vertex -33.4566 127.734 1372.3
    endloop
  endfacet
  facet normal -0.587785 -0.809017 0
    outer loop
      vertex -33.4566 127.734 1247.3
      vertex -25.0001 121.59 1372.3
      vertex -33.4566 127.734 1372.3
    endloop
  endfacet
  facet normal -0.587785 -0.809017 -0
    outer loop
      vertex -25.0001 121.59 1372.3
      vertex -33.4566 127.734 1247.3
      vertex -25.0001 121.59 1247.3
    endloop
  endfacet
  facet normal -0.406774 -0.913529 0
    outer loop
      vertex -25.0001 121.59 1247.3
      vertex -15.451 117.338 1372.3
      vertex -25.0001 121.59 1372.3
    endloop
  endfacet
  facet normal -0.406774 -0.913529 -0
    outer loop
      vertex -15.451 117.338 1372.3
      vertex -25.0001 121.59 1247.3
      vertex -15.451 117.338 1247.3
    endloop
  endfacet
  facet normal -0.207886 -0.978153 0
    outer loop
      vertex -15.451 117.338 1247.3
      vertex -5.22654 115.165 1372.3
      vertex -15.451 117.338 1372.3
    endloop
  endfacet
  facet normal -0.207886 -0.978153 -0
    outer loop
      vertex -5.22654 115.165 1372.3
      vertex -15.451 117.338 1247.3
      vertex -5.22654 115.165 1247.3
    endloop
  endfacet
  facet normal 0 -1 0
    outer loop
      vertex -5.22654 115.165 1247.3
      vertex 5.22631 115.165 1372.3
      vertex -5.22654 115.165 1372.3
    endloop
  endfacet
  facet normal 0 -1 -0
    outer loop
      vertex 5.22631 115.165 1372.3
      vertex -5.22654 115.165 1247.3
      vertex 5.22631 115.165 1247.3
    endloop
  endfacet
  facet normal 0.207888 -0.978153 0
    outer loop
      vertex 5.22631 115.165 1247.3
      vertex 15.4507 117.338 1372.3
      vertex 5.22631 115.165 1372.3
    endloop
  endfacet
  facet normal 0.207888 -0.978153 0
    outer loop
      vertex 15.4507 117.338 1372.3
      vertex 5.22631 115.165 1247.3
      vertex 15.4507 117.338 1247.3
    endloop
  endfacet
  facet normal 0.40677 -0.91353 0
    outer loop
      vertex 15.4507 117.338 1247.3
      vertex 24.9999 121.59 1372.3
      vertex 15.4507 117.338 1372.3
    endloop
  endfacet
  facet normal 0.40677 -0.91353 0
    outer loop
      vertex 24.9999 121.59 1372.3
      vertex 15.4507 117.338 1247.3
      vertex 24.9999 121.59 1247.3
    endloop
  endfacet
  facet normal 0.587785 -0.809017 0
    outer loop
      vertex 24.9999 121.59 1247.3
      vertex 33.4564 127.734 1372.3
      vertex 24.9999 121.59 1372.3
    endloop
  endfacet
  facet normal 0.587785 -0.809017 0
    outer loop
      vertex 33.4564 127.734 1372.3
      vertex 24.9999 121.59 1247.3
      vertex 33.4564 127.734 1247.3
    endloop
  endfacet
  facet normal 0.743147 -0.669129 0
    outer loop
      vertex 33.4564 127.734 1372.3
      vertex 40.4507 135.502 1247.3
      vertex 40.4507 135.502 1372.3
    endloop
  endfacet
  facet normal 0.743147 -0.669129 0
    outer loop
      vertex 40.4507 135.502 1247.3
      vertex 33.4564 127.734 1372.3
      vertex 33.4564 127.734 1247.3
    endloop
  endfacet
  facet normal 0.866012 -0.500023 0
    outer loop
      vertex 40.4507 135.502 1372.3
      vertex 45.6772 144.554 1247.3
      vertex 45.6772 144.554 1372.3
    endloop
  endfacet
  facet normal 0.866012 -0.500023 0
    outer loop
      vertex 45.6772 144.554 1247.3
      vertex 40.4507 135.502 1372.3
      vertex 40.4507 135.502 1247.3
    endloop
  endfacet
  facet normal 0.951054 -0.309023 0
    outer loop
      vertex 45.6772 144.554 1372.3
      vertex 48.9073 154.495 1247.3
      vertex 48.9073 154.495 1372.3
    endloop
  endfacet
  facet normal 0.951054 -0.309023 0
    outer loop
      vertex 48.9073 154.495 1247.3
      vertex 45.6772 144.554 1372.3
      vertex 45.6772 144.554 1247.3
    endloop
  endfacet
  facet normal 0.994523 -0.104522 0
    outer loop
      vertex 48.9073 154.495 1372.3
      vertex 49.9999 164.891 1247.3
      vertex 49.9999 164.891 1372.3
    endloop
  endfacet
  facet normal 0.994523 -0.104522 0
    outer loop
      vertex 49.9999 164.891 1247.3
      vertex 48.9073 154.495 1372.3
      vertex 48.9073 154.495 1247.3
    endloop
  endfacet
  facet normal 0 0 -1
    outer loop
      vertex 48.9073 154.495 1247.3
      vertex 48.9073 175.287 1247.3
      vertex 49.9999 164.891 1247.3
    endloop
  endfacet
  facet normal 0 0 -1
    outer loop
      vertex 45.6772 144.554 1247.3
      vertex 48.9073 175.287 1247.3
      vertex 48.9073 154.495 1247.3
    endloop
  endfacet
  facet normal 0 0 -1
    outer loop
      vertex 45.6772 144.554 1247.3
      vertex 45.6772 185.228 1247.3
      vertex 48.9073 175.287 1247.3
    endloop
  endfacet
  facet normal 0 0 -1
    outer loop
      vertex 40.4507 135.502 1247.3
      vertex 45.6772 185.228 1247.3
      vertex 45.6772 144.554 1247.3
    endloop
  endfacet
  facet normal 0 0 -1
    outer loop
      vertex 40.4507 135.502 1247.3
      vertex 40.4507 194.28 1247.3
      vertex 45.6772 185.228 1247.3
    endloop
  endfacet
  facet normal 0 0 -1
    outer loop
      vertex 33.4564 127.734 1247.3
      vertex 40.4507 194.28 1247.3
      vertex 40.4507 135.502 1247.3
    endloop
  endfacet
  facet normal 0 0 -1
    outer loop
      vertex 33.4564 127.734 1247.3
      vertex 33.4564 202.048 1247.3
      vertex 40.4507 194.28 1247.3
    endloop
  endfacet
  facet normal 0 0 -1
    outer loop
      vertex 24.9999 121.59 1247.3
      vertex 33.4564 202.048 1247.3
      vertex 33.4564 127.734 1247.3
    endloop
  endfacet
  facet normal 0 0 -1
    outer loop
      vertex 24.9999 121.59 1247.3
      vertex 24.9999 208.192 1247.3
      vertex 33.4564 202.048 1247.3
    endloop
  endfacet
  facet normal 0 0 -1
    outer loop
      vertex 15.4507 117.338 1247.3
      vertex 24.9999 208.192 1247.3
      vertex 24.9999 121.59 1247.3
    endloop
  endfacet
  facet normal 0 0 -1
    outer loop
      vertex 15.4507 117.338 1247.3
      vertex 15.4507 212.444 1247.3
      vertex 24.9999 208.192 1247.3
    endloop
  endfacet
  facet normal 0 0 -1
    outer loop
      vertex 5.22631 115.165 1247.3
      vertex 15.4507 212.444 1247.3
      vertex 15.4507 117.338 1247.3
    endloop
  endfacet
  facet normal 0 0 -1
    outer loop
      vertex 5.22631 115.165 1247.3
      vertex 5.22631 214.617 1247.3
      vertex 15.4507 212.444 1247.3
    endloop
  endfacet
  facet normal 0 0 -1
    outer loop
      vertex -5.22654 115.165 1247.3
      vertex 5.22631 214.617 1247.3
      vertex 5.22631 115.165 1247.3
    endloop
  endfacet
  facet normal 0 0 -1
    outer loop
      vertex -5.22654 115.165 1247.3
      vertex -5.22654 214.617 1247.3
      vertex 5.22631 214.617 1247.3
    endloop
  endfacet
  facet normal 0 0 -1
    outer loop
      vertex -15.451 117.338 1247.3
      vertex -5.22654 214.617 1247.3
      vertex -5.22654 115.165 1247.3
    endloop
  endfacet
  facet normal 0 0 -1
    outer loop
      vertex -15.451 117.338 1247.3
      vertex -15.451 212.444 1247.3
      vertex -5.22654 214.617 1247.3
    endloop
  endfacet
  facet normal 0 0 -1
    outer loop
      vertex -25.0001 121.59 1247.3
      vertex -15.451 212.444 1247.3
      vertex -15.451 117.338 1247.3
    endloop
  endfacet
  facet normal 0 0 -1
    outer loop
      vertex -25.0001 121.59 1247.3
      vertex -25.0001 208.192 1247.3
      vertex -15.451 212.444 1247.3
    endloop
  endfacet
  facet normal 0 0 -1
    outer loop
      vertex -33.4566 127.734 1247.3
      vertex -25.0001 208.192 1247.3
      vertex -25.0001 121.59 1247.3
    endloop
  endfacet
  facet normal 0 0 -1
    outer loop
      vertex -33.4566 127.734 1247.3
      vertex -33.4566 202.048 1247.3
      vertex -25.0001 208.192 1247.3
    endloop
  endfacet
  facet normal 0 0 -1
    outer loop
      vertex -40.451 135.502 1247.3
      vertex -33.4566 202.048 1247.3
      vertex -33.4566 127.734 1247.3
    endloop
  endfacet
  facet normal 0 0 -1
    outer loop
      vertex -40.451 135.502 1247.3
      vertex -40.451 194.28 1247.3
      vertex -33.4566 202.048 1247.3
    endloop
  endfacet
  facet normal 0 0 -1
    outer loop
      vertex -45.6774 144.554 1247.3
      vertex -40.451 194.28 1247.3
      vertex -40.451 135.502 1247.3
    endloop
  endfacet
  facet normal 0 0 -1
    outer loop
      vertex -45.6774 144.554 1247.3
      vertex -45.6774 185.228 1247.3
      vertex -40.451 194.28 1247.3
    endloop
  endfacet
  facet normal 0 0 -1
    outer loop
      vertex -48.9075 154.495 1247.3
      vertex -45.6774 185.228 1247.3
      vertex -45.6774 144.554 1247.3
    endloop
  endfacet
  facet normal 0 0 -1
    outer loop
      vertex -48.9075 154.495 1247.3
      vertex -48.9075 175.287 1247.3
      vertex -45.6774 185.228 1247.3
    endloop
  endfacet
  facet normal 0 -0 -1
    outer loop
      vertex -48.9075 175.287 1247.3
      vertex -48.9075 154.495 1247.3
      vertex -50.0001 164.891 1247.3
    endloop
  endfacet
  facet normal 0 0 1
    outer loop
      vertex 48.9073 175.287 1372.3
      vertex 48.9073 154.495 1372.3
      vertex 49.9999 164.891 1372.3
    endloop
  endfacet
  facet normal 0 0 1
    outer loop
      vertex 45.6772 185.228 1372.3
      vertex 48.9073 154.495 1372.3
      vertex 48.9073 175.287 1372.3
    endloop
  endfacet
  facet normal 0 0 1
    outer loop
      vertex 45.6772 185.228 1372.3
      vertex 45.6772 144.554 1372.3
      vertex 48.9073 154.495 1372.3
    endloop
  endfacet
  facet normal 0 0 1
    outer loop
      vertex 40.4507 194.28 1372.3
      vertex 45.6772 144.554 1372.3
      vertex 45.6772 185.228 1372.3
    endloop
  endfacet
  facet normal 0 0 1
    outer loop
      vertex 40.4507 194.28 1372.3
      vertex 40.4507 135.502 1372.3
      vertex 45.6772 144.554 1372.3
    endloop
  endfacet
  facet normal 0 0 1
    outer loop
      vertex 33.4564 202.048 1372.3
      vertex 40.4507 135.502 1372.3
      vertex 40.4507 194.28 1372.3
    endloop
  endfacet
  facet normal 0 0 1
    outer loop
      vertex 33.4564 202.048 1372.3
      vertex 33.4564 127.734 1372.3
      vertex 40.4507 135.502 1372.3
    endloop
  endfacet
  facet normal 0 0 1
    outer loop
      vertex 24.9999 208.192 1372.3
      vertex 33.4564 127.734 1372.3
      vertex 33.4564 202.048 1372.3
    endloop
  endfacet
  facet normal 0 0 1
    outer loop
      vertex 24.9999 208.192 1372.3
      vertex 24.9999 121.59 1372.3
      vertex 33.4564 127.734 1372.3
    endloop
  endfacet
  facet normal 0 0 1
    outer loop
      vertex 15.4507 212.444 1372.3
      vertex 24.9999 121.59 1372.3
      vertex 24.9999 208.192 1372.3
    endloop
  endfacet
  facet normal 0 0 1
    outer loop
      vertex 15.4507 212.444 1372.3
      vertex 15.4507 117.338 1372.3
      vertex 24.9999 121.59 1372.3
    endloop
  endfacet
  facet normal 0 0 1
    outer loop
      vertex 5.22631 214.617 1372.3
      vertex 15.4507 117.338 1372.3
      vertex 15.4507 212.444 1372.3
    endloop
  endfacet
  facet normal 0 0 1
    outer loop
      vertex 5.22631 214.617 1372.3
      vertex 5.22631 115.165 1372.3
      vertex 15.4507 117.338 1372.3
    endloop
  endfacet
  facet normal -0 0 1
    outer loop
      vertex -5.22654 214.617 1372.3
      vertex 5.22631 115.165 1372.3
      vertex 5.22631 214.617 1372.3
    endloop
  endfacet
  facet normal 0 0 1
    outer loop
      vertex -5.22654 214.617 1372.3
      vertex -5.22654 115.165 1372.3
      vertex 5.22631 115.165 1372.3
    endloop
  endfacet
  facet normal -0 0 1
    outer loop
      vertex -15.451 212.444 1372.3
      vertex -5.22654 115.165 1372.3
      vertex -5.22654 214.617 1372.3
    endloop
  endfacet
  facet normal 0 0 1
    outer loop
      vertex -15.451 212.444 1372.3
      vertex -15.451 117.338 1372.3
      vertex -5.22654 115.165 1372.3
    endloop
  endfacet
  facet normal -0 0 1
    outer loop
      vertex -25.0001 208.192 1372.3
      vertex -15.451 117.338 1372.3
      vertex -15.451 212.444 1372.3
    endloop
  endfacet
  facet normal 0 0 1
    outer loop
      vertex -25.0001 208.192 1372.3
      vertex -25.0001 121.59 1372.3
      vertex -15.451 117.338 1372.3
    endloop
  endfacet
  facet normal -0 0 1
    outer loop
      vertex -33.4566 202.048 1372.3
      vertex -25.0001 121.59 1372.3
      vertex -25.0001 208.192 1372.3
    endloop
  endfacet
  facet normal 0 0 1
    outer loop
      vertex -33.4566 202.048 1372.3
      vertex -33.4566 127.734 1372.3
      vertex -25.0001 121.59 1372.3
    endloop
  endfacet
  facet normal -0 0 1
    outer loop
      vertex -40.451 194.28 1372.3
      vertex -33.4566 127.734 1372.3
      vertex -33.4566 202.048 1372.3
    endloop
  endfacet
  facet normal 0 0 1
    outer loop
      vertex -40.451 194.28 1372.3
      vertex -40.451 135.502 1372.3
      vertex -33.4566 127.734 1372.3
    endloop
  endfacet
  facet normal -0 0 1
    outer loop
      vertex -45.6774 185.228 1372.3
      vertex -40.451 135.502 1372.3
      vertex -40.451 194.28 1372.3
    endloop
  endfacet
  facet normal 0 0 1
    outer loop
      vertex -45.6774 185.228 1372.3
      vertex -45.6774 144.554 1372.3
      vertex -40.451 135.502 1372.3
    endloop
  endfacet
  facet normal -0 0 1
    outer loop
      vertex -48.9075 175.287 1372.3
      vertex -45.6774 144.554 1372.3
      vertex -45.6774 185.228 1372.3
    endloop
  endfacet
  facet normal 0 0 1
    outer loop
      vertex -48.9075 175.287 1372.3
      vertex -48.9075 154.495 1372.3
      vertex -45.6774 144.554 1372.3
    endloop
  endfacet
  facet normal 0 -0 1
    outer loop
      vertex -48.9075 154.495 1372.3
      vertex -48.9075 175.287 1372.3
      vertex -50.0001 164.891 1372.3
    endloop
  endfacet
endsolid OpenSCAD_Model
