solid OpenSCAD_Model
  facet normal 0.994523 0.104523 0
    outer loop
      vertex 60 176 798
      vertex 58.6889 188.475 53
      vertex 58.6889 188.475 798
    endloop
  endfacet
  facet normal 0.994523 0.104523 0
    outer loop
      vertex 58.6889 188.475 53
      vertex 60 176 798
      vertex 60 176 53
    endloop
  endfacet
  facet normal 0.951051 0.309034 0
    outer loop
      vertex 58.6889 188.475 798
      vertex 54.8127 200.404 53
      vertex 54.8127 200.404 798
    endloop
  endfacet
  facet normal 0.951051 0.309034 0
    outer loop
      vertex 54.8127 200.404 53
      vertex 58.6889 188.475 798
      vertex 58.6889 188.475 53
    endloop
  endfacet
  facet normal 0.866027 0.499997 0
    outer loop
      vertex 54.8127 200.404 798
      vertex 48.541 211.267 53
      vertex 48.541 211.267 798
    endloop
  endfacet
  facet normal 0.866027 0.499997 0
    outer loop
      vertex 48.541 211.267 53
      vertex 54.8127 200.404 798
      vertex 54.8127 200.404 53
    endloop
  endfacet
  facet normal 0.743159 0.669114 0
    outer loop
      vertex 48.541 211.267 798
      vertex 40.1478 220.589 53
      vertex 40.1478 220.589 798
    endloop
  endfacet
  facet normal 0.743159 0.669114 0
    outer loop
      vertex 40.1478 220.589 53
      vertex 48.541 211.267 798
      vertex 48.541 211.267 53
    endloop
  endfacet
  facet normal 0.587795 0.80901 -0
    outer loop
      vertex 40.1478 220.589 53
      vertex 30 227.962 798
      vertex 40.1478 220.589 798
    endloop
  endfacet
  facet normal 0.587795 0.80901 0
    outer loop
      vertex 30 227.962 798
      vertex 40.1478 220.589 53
      vertex 30 227.962 53
    endloop
  endfacet
  facet normal 0.406678 0.913571 -0
    outer loop
      vertex 30 227.962 53
      vertex 18.541 233.063 798
      vertex 30 227.962 798
    endloop
  endfacet
  facet normal 0.406678 0.913571 0
    outer loop
      vertex 18.541 233.063 798
      vertex 30 227.962 53
      vertex 18.541 233.063 53
    endloop
  endfacet
  facet normal 0.207918 0.978146 -0
    outer loop
      vertex 18.541 233.063 53
      vertex 6.27171 235.671 798
      vertex 18.541 233.063 798
    endloop
  endfacet
  facet normal 0.207918 0.978146 0
    outer loop
      vertex 6.27171 235.671 798
      vertex 18.541 233.063 53
      vertex 6.27171 235.671 53
    endloop
  endfacet
  facet normal 0 1 -0
    outer loop
      vertex 6.27171 235.671 53
      vertex -6.27171 235.671 798
      vertex 6.27171 235.671 798
    endloop
  endfacet
  facet normal 0 1 0
    outer loop
      vertex -6.27171 235.671 798
      vertex 6.27171 235.671 53
      vertex -6.27171 235.671 53
    endloop
  endfacet
  facet normal -0.207918 0.978146 0
    outer loop
      vertex -6.27171 235.671 53
      vertex -18.541 233.063 798
      vertex -6.27171 235.671 798
    endloop
  endfacet
  facet normal -0.207918 0.978146 0
    outer loop
      vertex -18.541 233.063 798
      vertex -6.27171 235.671 53
      vertex -18.541 233.063 53
    endloop
  endfacet
  facet normal -0.406678 0.913571 0
    outer loop
      vertex -18.541 233.063 53
      vertex -30 227.962 798
      vertex -18.541 233.063 798
    endloop
  endfacet
  facet normal -0.406678 0.913571 0
    outer loop
      vertex -30 227.962 798
      vertex -18.541 233.063 53
      vertex -30 227.962 53
    endloop
  endfacet
  facet normal -0.587795 0.80901 0
    outer loop
      vertex -30 227.962 53
      vertex -40.1478 220.589 798
      vertex -30 227.962 798
    endloop
  endfacet
  facet normal -0.587795 0.80901 0
    outer loop
      vertex -40.1478 220.589 798
      vertex -30 227.962 53
      vertex -40.1478 220.589 53
    endloop
  endfacet
  facet normal -0.743159 0.669114 0
    outer loop
      vertex -48.541 211.267 53
      vertex -40.1478 220.589 798
      vertex -40.1478 220.589 53
    endloop
  endfacet
  facet normal -0.743159 0.669114 0
    outer loop
      vertex -40.1478 220.589 798
      vertex -48.541 211.267 53
      vertex -48.541 211.267 798
    endloop
  endfacet
  facet normal -0.866027 0.499997 0
    outer loop
      vertex -54.8127 200.404 53
      vertex -48.541 211.267 798
      vertex -48.541 211.267 53
    endloop
  endfacet
  facet normal -0.866027 0.499997 0
    outer loop
      vertex -48.541 211.267 798
      vertex -54.8127 200.404 53
      vertex -54.8127 200.404 798
    endloop
  endfacet
  facet normal -0.951051 0.309034 0
    outer loop
      vertex -58.6889 188.475 53
      vertex -54.8127 200.404 798
      vertex -54.8127 200.404 53
    endloop
  endfacet
  facet normal -0.951051 0.309034 0
    outer loop
      vertex -54.8127 200.404 798
      vertex -58.6889 188.475 53
      vertex -58.6889 188.475 798
    endloop
  endfacet
  facet normal -0.994523 0.104523 0
    outer loop
      vertex -60 176 53
      vertex -58.6889 188.475 798
      vertex -58.6889 188.475 53
    endloop
  endfacet
  facet normal -0.994523 0.104523 0
    outer loop
      vertex -58.6889 188.475 798
      vertex -60 176 53
      vertex -60 176 798
    endloop
  endfacet
  facet normal -0.994523 -0.104523 0
    outer loop
      vertex -58.6889 163.525 53
      vertex -60 176 798
      vertex -60 176 53
    endloop
  endfacet
  facet normal -0.994523 -0.104523 0
    outer loop
      vertex -60 176 798
      vertex -58.6889 163.525 53
      vertex -58.6889 163.525 798
    endloop
  endfacet
  facet normal -0.951051 -0.309034 0
    outer loop
      vertex -54.8127 151.596 53
      vertex -58.6889 163.525 798
      vertex -58.6889 163.525 53
    endloop
  endfacet
  facet normal -0.951051 -0.309034 0
    outer loop
      vertex -58.6889 163.525 798
      vertex -54.8127 151.596 53
      vertex -54.8127 151.596 798
    endloop
  endfacet
  facet normal -0.866027 -0.499997 0
    outer loop
      vertex -48.541 140.733 53
      vertex -54.8127 151.596 798
      vertex -54.8127 151.596 53
    endloop
  endfacet
  facet normal -0.866027 -0.499997 0
    outer loop
      vertex -54.8127 151.596 798
      vertex -48.541 140.733 53
      vertex -48.541 140.733 798
    endloop
  endfacet
  facet normal -0.743159 -0.669114 0
    outer loop
      vertex -40.1478 131.411 53
      vertex -48.541 140.733 798
      vertex -48.541 140.733 53
    endloop
  endfacet
  facet normal -0.743159 -0.669114 0
    outer loop
      vertex -48.541 140.733 798
      vertex -40.1478 131.411 53
      vertex -40.1478 131.411 798
    endloop
  endfacet
  facet normal -0.587795 -0.80901 0
    outer loop
      vertex -40.1478 131.411 53
      vertex -30 124.038 798
      vertex -40.1478 131.411 798
    endloop
  endfacet
  facet normal -0.587795 -0.80901 -0
    outer loop
      vertex -30 124.038 798
      vertex -40.1478 131.411 53
      vertex -30 124.038 53
    endloop
  endfacet
  facet normal -0.406678 -0.913571 0
    outer loop
      vertex -30 124.038 53
      vertex -18.541 118.937 798
      vertex -30 124.038 798
    endloop
  endfacet
  facet normal -0.406678 -0.913571 -0
    outer loop
      vertex -18.541 118.937 798
      vertex -30 124.038 53
      vertex -18.541 118.937 53
    endloop
  endfacet
  facet normal -0.207918 -0.978146 0
    outer loop
      vertex -18.541 118.937 53
      vertex -6.27171 116.329 798
      vertex -18.541 118.937 798
    endloop
  endfacet
  facet normal -0.207918 -0.978146 -0
    outer loop
      vertex -6.27171 116.329 798
      vertex -18.541 118.937 53
      vertex -6.27171 116.329 53
    endloop
  endfacet
  facet normal 0 -1 0
    outer loop
      vertex -6.27171 116.329 53
      vertex 6.27171 116.329 798
      vertex -6.27171 116.329 798
    endloop
  endfacet
  facet normal 0 -1 -0
    outer loop
      vertex 6.27171 116.329 798
      vertex -6.27171 116.329 53
      vertex 6.27171 116.329 53
    endloop
  endfacet
  facet normal 0.207918 -0.978146 0
    outer loop
      vertex 6.27171 116.329 53
      vertex 18.541 118.937 798
      vertex 6.27171 116.329 798
    endloop
  endfacet
  facet normal 0.207918 -0.978146 0
    outer loop
      vertex 18.541 118.937 798
      vertex 6.27171 116.329 53
      vertex 18.541 118.937 53
    endloop
  endfacet
  facet normal 0.406678 -0.913571 0
    outer loop
      vertex 18.541 118.937 53
      vertex 30 124.038 798
      vertex 18.541 118.937 798
    endloop
  endfacet
  facet normal 0.406678 -0.913571 0
    outer loop
      vertex 30 124.038 798
      vertex 18.541 118.937 53
      vertex 30 124.038 53
    endloop
  endfacet
  facet normal 0.587795 -0.80901 0
    outer loop
      vertex 30 124.038 53
      vertex 40.1478 131.411 798
      vertex 30 124.038 798
    endloop
  endfacet
  facet normal 0.587795 -0.80901 0
    outer loop
      vertex 40.1478 131.411 798
      vertex 30 124.038 53
      vertex 40.1478 131.411 53
    endloop
  endfacet
  facet normal 0.743159 -0.669114 0
    outer loop
      vertex 40.1478 131.411 798
      vertex 48.541 140.733 53
      vertex 48.541 140.733 798
    endloop
  endfacet
  facet normal 0.743159 -0.669114 0
    outer loop
      vertex 48.541 140.733 53
      vertex 40.1478 131.411 798
      vertex 40.1478 131.411 53
    endloop
  endfacet
  facet normal 0.866027 -0.499997 0
    outer loop
      vertex 48.541 140.733 798
      vertex 54.8127 151.596 53
      vertex 54.8127 151.596 798
    endloop
  endfacet
  facet normal 0.866027 -0.499997 0
    outer loop
      vertex 54.8127 151.596 53
      vertex 48.541 140.733 798
      vertex 48.541 140.733 53
    endloop
  endfacet
  facet normal 0.951051 -0.309034 0
    outer loop
      vertex 54.8127 151.596 798
      vertex 58.6889 163.525 53
      vertex 58.6889 163.525 798
    endloop
  endfacet
  facet normal 0.951051 -0.309034 0
    outer loop
      vertex 58.6889 163.525 53
      vertex 54.8127 151.596 798
      vertex 54.8127 151.596 53
    endloop
  endfacet
  facet normal 0.994523 -0.104523 0
    outer loop
      vertex 58.6889 163.525 798
      vertex 60 176 53
      vertex 60 176 798
    endloop
  endfacet
  facet normal 0.994523 -0.104523 0
    outer loop
      vertex 60 176 53
      vertex 58.6889 163.525 798
      vertex 58.6889 163.525 53
    endloop
  endfacet
  facet normal 0 0 -1
    outer loop
      vertex 58.6889 163.525 53
      vertex 58.6889 188.475 53
      vertex 60 176 53
    endloop
  endfacet
  facet normal 0 0 -1
    outer loop
      vertex 54.8127 151.596 53
      vertex 58.6889 188.475 53
      vertex 58.6889 163.525 53
    endloop
  endfacet
  facet normal 0 0 -1
    outer loop
      vertex 54.8127 151.596 53
      vertex 54.8127 200.404 53
      vertex 58.6889 188.475 53
    endloop
  endfacet
  facet normal 0 0 -1
    outer loop
      vertex 48.541 140.733 53
      vertex 54.8127 200.404 53
      vertex 54.8127 151.596 53
    endloop
  endfacet
  facet normal 0 0 -1
    outer loop
      vertex 48.541 140.733 53
      vertex 48.541 211.267 53
      vertex 54.8127 200.404 53
    endloop
  endfacet
  facet normal 0 0 -1
    outer loop
      vertex 40.1478 131.411 53
      vertex 48.541 211.267 53
      vertex 48.541 140.733 53
    endloop
  endfacet
  facet normal 0 0 -1
    outer loop
      vertex 40.1478 131.411 53
      vertex 40.1478 220.589 53
      vertex 48.541 211.267 53
    endloop
  endfacet
  facet normal 0 0 -1
    outer loop
      vertex 30 124.038 53
      vertex 40.1478 220.589 53
      vertex 40.1478 131.411 53
    endloop
  endfacet
  facet normal 0 0 -1
    outer loop
      vertex 30 124.038 53
      vertex 30 227.962 53
      vertex 40.1478 220.589 53
    endloop
  endfacet
  facet normal 0 0 -1
    outer loop
      vertex 18.541 118.937 53
      vertex 30 227.962 53
      vertex 30 124.038 53
    endloop
  endfacet
  facet normal 0 0 -1
    outer loop
      vertex 18.541 118.937 53
      vertex 18.541 233.063 53
      vertex 30 227.962 53
    endloop
  endfacet
  facet normal 0 0 -1
    outer loop
      vertex 6.27171 116.329 53
      vertex 18.541 233.063 53
      vertex 18.541 118.937 53
    endloop
  endfacet
  facet normal 0 0 -1
    outer loop
      vertex 6.27171 116.329 53
      vertex 6.27171 235.671 53
      vertex 18.541 233.063 53
    endloop
  endfacet
  facet normal 0 0 -1
    outer loop
      vertex -6.27171 116.329 53
      vertex 6.27171 235.671 53
      vertex 6.27171 116.329 53
    endloop
  endfacet
  facet normal 0 0 -1
    outer loop
      vertex -6.27171 116.329 53
      vertex -6.27171 235.671 53
      vertex 6.27171 235.671 53
    endloop
  endfacet
  facet normal 0 0 -1
    outer loop
      vertex -18.541 118.937 53
      vertex -6.27171 235.671 53
      vertex -6.27171 116.329 53
    endloop
  endfacet
  facet normal 0 0 -1
    outer loop
      vertex -18.541 118.937 53
      vertex -18.541 233.063 53
      vertex -6.27171 235.671 53
    endloop
  endfacet
  facet normal 0 0 -1
    outer loop
      vertex -30 124.038 53
      vertex -18.541 233.063 53
      vertex -18.541 118.937 53
    endloop
  endfacet
  facet normal 0 0 -1
    outer loop
      vertex -30 124.038 53
      vertex -30 227.962 53
      vertex -18.541 233.063 53
    endloop
  endfacet
  facet normal 0 0 -1
    outer loop
      vertex -40.1478 131.411 53
      vertex -30 227.962 53
      vertex -30 124.038 53
    endloop
  endfacet
  facet normal 0 0 -1
    outer loop
      vertex -40.1478 131.411 53
      vertex -40.1478 220.589 53
      vertex -30 227.962 53
    endloop
  endfacet
  facet normal 0 0 -1
    outer loop
      vertex -48.541 140.733 53
      vertex -40.1478 220.589 53
      vertex -40.1478 131.411 53
    endloop
  endfacet
  facet normal 0 0 -1
    outer loop
      vertex -48.541 140.733 53
      vertex -48.541 211.267 53
      vertex -40.1478 220.589 53
    endloop
  endfacet
  facet normal 0 0 -1
    outer loop
      vertex -54.8127 151.596 53
      vertex -48.541 211.267 53
      vertex -48.541 140.733 53
    endloop
  endfacet
  facet normal 0 0 -1
    outer loop
      vertex -54.8127 151.596 53
      vertex -54.8127 200.404 53
      vertex -48.541 211.267 53
    endloop
  endfacet
  facet normal 0 0 -1
    outer loop
      vertex -58.6889 163.525 53
      vertex -54.8127 200.404 53
      vertex -54.8127 151.596 53
    endloop
  endfacet
  facet normal 0 0 -1
    outer loop
      vertex -58.6889 163.525 53
      vertex -58.6889 188.475 53
      vertex -54.8127 200.404 53
    endloop
  endfacet
  facet normal 0 -0 -1
    outer loop
      vertex -58.6889 188.475 53
      vertex -58.6889 163.525 53
      vertex -60 176 53
    endloop
  endfacet
  facet normal 0 0 1
    outer loop
      vertex 58.6889 188.475 798
      vertex 58.6889 163.525 798
      vertex 60 176 798
    endloop
  endfacet
  facet normal 0 0 1
    outer loop
      vertex 54.8127 200.404 798
      vertex 58.6889 163.525 798
      vertex 58.6889 188.475 798
    endloop
  endfacet
  facet normal 0 0 1
    outer loop
      vertex 54.8127 200.404 798
      vertex 54.8127 151.596 798
      vertex 58.6889 163.525 798
    endloop
  endfacet
  facet normal 0 0 1
    outer loop
      vertex 48.541 211.267 798
      vertex 54.8127 151.596 798
      vertex 54.8127 200.404 798
    endloop
  endfacet
  facet normal 0 0 1
    outer loop
      vertex 48.541 211.267 798
      vertex 48.541 140.733 798
      vertex 54.8127 151.596 798
    endloop
  endfacet
  facet normal 0 0 1
    outer loop
      vertex 40.1478 220.589 798
      vertex 48.541 140.733 798
      vertex 48.541 211.267 798
    endloop
  endfacet
  facet normal 0 0 1
    outer loop
      vertex 40.1478 220.589 798
      vertex 40.1478 131.411 798
      vertex 48.541 140.733 798
    endloop
  endfacet
  facet normal 0 0 1
    outer loop
      vertex 30 227.962 798
      vertex 40.1478 131.411 798
      vertex 40.1478 220.589 798
    endloop
  endfacet
  facet normal 0 0 1
    outer loop
      vertex 30 227.962 798
      vertex 30 124.038 798
      vertex 40.1478 131.411 798
    endloop
  endfacet
  facet normal 0 0 1
    outer loop
      vertex 18.541 233.063 798
      vertex 30 124.038 798
      vertex 30 227.962 798
    endloop
  endfacet
  facet normal 0 0 1
    outer loop
      vertex 18.541 233.063 798
      vertex 18.541 118.937 798
      vertex 30 124.038 798
    endloop
  endfacet
  facet normal 0 0 1
    outer loop
      vertex 6.27171 235.671 798
      vertex 18.541 118.937 798
      vertex 18.541 233.063 798
    endloop
  endfacet
  facet normal 0 0 1
    outer loop
      vertex 6.27171 235.671 798
      vertex 6.27171 116.329 798
      vertex 18.541 118.937 798
    endloop
  endfacet
  facet normal -0 0 1
    outer loop
      vertex -6.27171 235.671 798
      vertex 6.27171 116.329 798
      vertex 6.27171 235.671 798
    endloop
  endfacet
  facet normal 0 0 1
    outer loop
      vertex -6.27171 235.671 798
      vertex -6.27171 116.329 798
      vertex 6.27171 116.329 798
    endloop
  endfacet
  facet normal -0 0 1
    outer loop
      vertex -18.541 233.063 798
      vertex -6.27171 116.329 798
      vertex -6.27171 235.671 798
    endloop
  endfacet
  facet normal 0 0 1
    outer loop
      vertex -18.541 233.063 798
      vertex -18.541 118.937 798
      vertex -6.27171 116.329 798
    endloop
  endfacet
  facet normal -0 0 1
    outer loop
      vertex -30 227.962 798
      vertex -18.541 118.937 798
      vertex -18.541 233.063 798
    endloop
  endfacet
  facet normal 0 0 1
    outer loop
      vertex -30 227.962 798
      vertex -30 124.038 798
      vertex -18.541 118.937 798
    endloop
  endfacet
  facet normal -0 0 1
    outer loop
      vertex -40.1478 220.589 798
      vertex -30 124.038 798
      vertex -30 227.962 798
    endloop
  endfacet
  facet normal 0 0 1
    outer loop
      vertex -40.1478 220.589 798
      vertex -40.1478 131.411 798
      vertex -30 124.038 798
    endloop
  endfacet
  facet normal -0 0 1
    outer loop
      vertex -48.541 211.267 798
      vertex -40.1478 131.411 798
      vertex -40.1478 220.589 798
    endloop
  endfacet
  facet normal 0 0 1
    outer loop
      vertex -48.541 211.267 798
      vertex -48.541 140.733 798
      vertex -40.1478 131.411 798
    endloop
  endfacet
  facet normal -0 0 1
    outer loop
      vertex -54.8127 200.404 798
      vertex -48.541 140.733 798
      vertex -48.541 211.267 798
    endloop
  endfacet
  facet normal 0 0 1
    outer loop
      vertex -54.8127 200.404 798
      vertex -54.8127 151.596 798
      vertex -48.541 140.733 798
    endloop
  endfacet
  facet normal -0 0 1
    outer loop
      vertex -58.6889 188.475 798
      vertex -54.8127 151.596 798
      vertex -54.8127 200.404 798
    endloop
  endfacet
  facet normal 0 0 1
    outer loop
      vertex -58.6889 188.475 798
      vertex -58.6889 163.525 798
      vertex -54.8127 151.596 798
    endloop
  endfacet
  facet normal 0 -0 1
    outer loop
      vertex -58.6889 163.525 798
      vertex -58.6889 188.475 798
      vertex -60 176 798
    endloop
  endfacet
endsolid OpenSCAD_Model
